<?xml version="1.0" standalone="no"?>
<!DOCTYPE svg PUBLIC "-//W3C//DTD SVG 20010904//EN"
 "http://www.w3.org/TR/2001/REC-SVG-20010904/DTD/svg10.dtd">
<svg version="1.0" xmlns="http://www.w3.org/2000/svg"
 width="273.000000pt" height="273.000000pt" viewBox="0 0 273.000000 273.000000"
 preserveAspectRatio="xMidYMid meet">
<metadata>
Created by potrace 1.11, written by Peter Selinger 2001-2013
</metadata>
<g transform="translate(0.000000,273.000000) scale(0.100000,-0.100000)"
fill="#000000" stroke="none">
<path d="M633 2723 l-21 -4 18 -43 c11 -23 22 -61 26 -84 6 -39 4 -44 -38 -91
-59 -65 -70 -105 -62 -228 5 -79 3 -106 -10 -137 -27 -65 -22 -99 24 -139 82
-75 182 -105 256 -77 42 16 41 3 -3 -43 -52 -55 -77 -99 -98 -171 -28 -98 -15
-158 95 -421 23 -55 54 -143 68 -195 25 -88 27 -109 27 -290 0 -210 -8 -259
-51 -316 -14 -18 -42 -40 -62 -49 -58 -27 -72 -44 -72 -85 0 -48 22 -67 87
-76 74 -9 118 2 162 42 70 63 100 169 126 444 8 91 20 194 26 230 10 61 46
170 56 170 2 0 21 -13 41 -29 20 -17 58 -36 84 -42 l46 -13 -47 -42 c-58 -52
-96 -120 -117 -210 -29 -126 0 -223 102 -334 32 -35 51 -61 42 -57 -9 3 -43 9
-76 13 -56 6 -61 5 -91 -22 -44 -40 -51 -91 -20 -128 41 -47 135 -67 354 -74
l190 -7 -80 -22 c-146 -40 -206 -46 -429 -40 -188 4 -222 8 -316 32 -120 31
-145 42 -180 80 -24 26 -25 32 -25 162 l0 135 -28 24 c-51 44 -137 28 -190
-36 -30 -35 -52 -127 -42 -178 27 -144 189 -275 410 -331 138 -35 247 -44 430
-38 388 14 765 124 899 262 123 126 203 459 178 737 -26 282 -113 478 -284
645 -75 73 -137 113 -279 181 -82 40 -122 66 -182 122 -91 85 -135 149 -228
336 -76 154 -139 236 -215 280 -52 30 -156 64 -200 64 -22 0 -36 8 -52 29 -42
58 -145 84 -249 64z"/>
</g>
</svg>
